<?xml version="1.0" encoding="utf-8"?>
<svg xmlns="http://www.w3.org/2000/svg" viewBox="0 0 500 500">
  <path fill="#2b2b2b" d="M 32.345 33.715 L 204.944 33.715 L 204.968 33.739 L 204.991 33.739 L 205.013 33.765 C 208.223 33.739 211.031 35.892 212.467 39.025 L 235.679 86.496 C 241.044 97.168 250.885 104.34 262.138 104.422 L 426.067 104.395 C 430.674 104.578 434.361 109.044 434.361 114.537 L 434.361 138.38 L 102.282 138.38 C 87.698 138.644 75.569 150.805 72.561 167.03 L 24.056 380.851 L 24.056 43.857 C 24.056 38.36 27.743 33.899 32.345 33.715 Z M 468.883 164.801 L 468.883 164.849 L 468.907 164.849 C 468.907 164.821 468.907 164.821 468.929 164.821 C 473.624 164.821 477.443 169.334 477.443 174.915 C 477.443 176.031 477.286 177.119 476.993 178.104 L 413.013 460.693 C 411.976 464.94 408.674 468.047 404.766 468.047 L 32.338 468.047 C 30.677 467.991 29.152 467.354 27.846 466.347 L 94.61 171.946 C 95.623 167.697 98.816 164.828 102.72 164.801 L 468.883 164.801 Z M 32.229 7.296 C 204.893 7.296 32.229 7.296 32.229 7.296 C 15.377 7.533 1.766 23.676 1.674 43.614 L 1.674 458.137 C 1.766 478.079 15.377 494.46 32.229 494.488 C 157.964 494.568 404.766 494.488 404.766 494.488 C 419.211 494.46 431.365 482.749 434.756 466.924 L 498.646 184.894 C 499.387 181.685 499.79 178.362 499.79 174.915 C 499.79 154.708 485.93 138.353 468.855 138.353 C 468.763 138.353 456.727 138.38 456.727 138.38 L 456.727 114.298 C 456.634 94.355 443.021 78.21 426.17 77.974 L 262.196 78 C 259.119 77.946 256.423 75.982 254.939 73.059 L 231.646 25.396 C 226.276 14.569 216.319 7.29 204.934 7.29 L 32.229 7.296 Z" style=""/>
</svg>