<svg xmlns="http://www.w3.org/2000/svg" version="1.1" viewBox="-5.0 -10.0 110.0 135.0">
 <path fill="#2b2b2b" d="m42.969 75.781h-2.2539c-4.9961 0-9.7891-1.9844-13.32-5.5195-3.5352-3.5312-5.5195-8.3242-5.5195-13.32v-11.629c0-1.293 1.0508-2.3438 2.3438-2.3438h6.25v-27.039c0-3.1875 1.2656-6.2461 3.5195-8.5039 2.2578-2.2539 5.3164-3.5195 8.5039-3.5195h15.016c3.1875 0 6.2461 1.2656 8.5039 3.5195 2.2539 2.2578 3.5195 5.3164 3.5195 8.5039v27.039h6.25c1.293 0 2.3438 1.0508 2.3438 2.3438v11.629c0 4.9961-1.9844 9.7891-5.5195 13.32-3.5312 3.5352-8.3242 5.5195-13.32 5.5195h-2.2539v6.25h6.25c6.4727 0 11.719 5.2461 11.719 11.719-0.14844 1.5-0.89844 2.3164-2.3438 2.3438h-45.312c-1.4492 0.003906-2.2617-0.74219-2.3438-2.3477 0-3.1055 1.2344-6.0859 3.4297-8.2852 2.1992-2.1953 5.1797-3.4297 8.2852-3.4297h6.2539zm-12.5-28.125h-3.9062v9.2852c0 3.7539 1.4922 7.3516 4.1445 10.008 2.6562 2.6523 6.2539 4.1445 10.008 4.1445h18.57c3.7539 0 7.3516-1.4922 10.008-4.1445 2.6523-2.6562 4.1445-6.2539 4.1445-10.008v-9.2852h-3.9062v8.2891c0 3.1875-1.2656 6.2461-3.5195 8.5-2.2578 2.2578-5.3164 3.5234-8.5039 3.5234h-15.016c-3.1875 0-6.2461-1.2656-8.5039-3.5234-2.2539-2.2539-3.5195-5.3125-3.5195-8.5zm34.375-4.6875v-4.6875h-7.0312c-1.293 0-2.3438-1.0508-2.3438-2.3438s1.0508-2.3438 2.3438-2.3438h7.0312v-4.6875h-7.0312c-1.293 0-2.3438-1.0508-2.3438-2.3438s1.0508-2.3438 2.3438-2.3438h7.0312v-4.6875h-7.0312c-1.293 0-2.3438-1.0508-2.3438-2.3438s1.0508-2.3438 2.3438-2.3438h6.9492c-0.23047-1.543-0.94922-2.9844-2.0664-4.1016-1.375-1.375-3.2422-2.1484-5.1875-2.1484h-15.016c-1.9453 0-3.8125 0.77344-5.1875 2.1484-1.1172 1.1172-1.8359 2.5586-2.0664 4.1016h6.9492c1.293 0 2.3438 1.0508 2.3438 2.3438s-1.0508 2.3438-2.3438 2.3438h-7.0312v4.6875h7.0312c1.293 0 2.3438 1.0508 2.3438 2.3438s-1.0508 2.3438-2.3438 2.3438h-7.0312v4.6875h7.0312c1.293 0 2.3438 1.0508 2.3438 2.3438s-1.0508 2.3438-2.3438 2.3438h-7.0312v4.6875h7.0312c1.293 0 2.3438 1.0508 2.3438 2.3438s-1.0508 2.3438-2.3438 2.3438h-7.0312v4.6875h7.0312c1.293 0 2.3438 1.0508 2.3438 2.3438s-1.0508 2.3438-2.3438 2.3438h-6.9492c0.23047 1.543 0.94922 2.9844 2.0664 4.1016 1.375 1.375 3.2422 2.1484 5.1875 2.1484h15.016c1.9453 0 3.8125-0.77344 5.1875-2.1484 1.1172-1.1172 1.8359-2.5586 2.0664-4.1016h-6.9492c-1.293 0-2.3438-1.0508-2.3438-2.3438s1.0508-2.3438 2.3438-2.3438h7.0312v-4.6875h-7.0312c-1.293 0-2.3438-1.0508-2.3438-2.3438s1.0508-2.3438 2.3438-2.3438zm-12.5 39.062v-6.25h-4.6875v6.25zm10.938 4.6875h-26.566c-1.8633 0-3.6523 0.74219-4.9688 2.0586-0.75 0.75-1.3125 1.6484-1.6562 2.6289h39.824c-0.96875-2.7305-3.5703-4.6875-6.6328-4.6875z" fill-rule="evenodd"/>
</svg>