<svg xmlns="http://www.w3.org/2000/svg" xmlns:xlink="http://www.w3.org/1999/xlink" version="1.0" x="0px" y="0px" viewBox="0 0 100 125" enable-background="new 0 0 100 100" xml:space="preserve"><path fill="#2b2b2b" d="M72.244,10.501c2.719,1.613,5.3,3.716,9.344,7.5c3.984,3.729,6.529,7.425,7.913,9.751  c-4.108,3.659-12.552,11.9-19.157,23.082C62.309,64.434,58.507,72.01,56.856,75.575c-0.166-0.002-0.331-0.002-0.497-0.002  c-11.967,0-23.952,3.806-33.231,7.799l25.743-25.741c0.833,0.235,1.697,0.359,2.564,0.359c2.499,0,4.85-0.973,6.621-2.74  c1.776-1.776,2.757-4.141,2.757-6.654c0-2.514-0.98-4.878-2.755-6.652c-1.776-1.777-4.139-2.756-6.652-2.756  c-2.513,0-4.875,0.978-6.649,2.751c-2.454,2.447-3.28,5.999-2.383,9.192L16.625,76.877c4.051-9.408,7.909-21.599,7.796-33.736  c3.564-1.65,11.14-5.451,24.737-13.483C60.343,23.055,68.582,14.613,72.244,10.501 M71.323,5.672c0,0-9.506,12.064-24.111,20.688  C27.186,38.188,20.506,40.671,20.506,40.671c1.468,24.66-16.101,51.247-16.101,51.247s-0.59-0.169-1.343-0.169  c-1.028,0-2.358,0.313-2.911,1.796c-0.538,1.44,0.475,3.037,1.242,3.979L46.98,51.941c-1.66-2.186-1.515-5.3,0.48-7.29  c1.089-1.088,2.516-1.633,3.945-1.633c1.427,0,2.855,0.544,3.942,1.633c2.179,2.177,2.179,5.712,0,7.889  c-1.085,1.081-2.497,1.62-3.913,1.62c-1.187,0-2.378-0.38-3.375-1.134L2.473,98.609c0.759,0.617,1.943,1.388,3.125,1.388  c0.288,0,0.575-0.045,0.856-0.149c2.577-0.961,1.63-4.257,1.63-4.257s24.499-16.188,48.274-16.188c0.991,0,1.98,0.028,2.968,0.086  c0,0,2.482-6.681,14.313-26.706c8.624-14.599,20.687-24.108,20.687-24.108s-2.849-6.661-10.121-13.47  C78.778,10.125,75.692,7.779,71.323,5.672L71.323,5.672z"/><path fill="#2b2b2b" d="M98.086,26.831c-0.742,0-1.449-0.434-1.762-1.158c-0.026-0.063-2.814-6.409-9.668-12.827  c-5.451-5.101-8.351-7.251-12.407-9.204c-0.954-0.458-1.354-1.603-0.896-2.556c0.463-0.954,1.607-1.353,2.558-0.895  c4.46,2.146,7.584,4.449,13.365,9.857c7.476,7.002,10.447,13.826,10.568,14.113c0.418,0.972-0.033,2.095-1.004,2.512  C98.593,26.781,98.337,26.831,98.086,26.831L98.086,26.831z"/>
</svg>