<?xml version="1.0" encoding="utf-8"?>
<svg xmlns="http://www.w3.org/2000/svg" viewBox="0 0 500 500">
  <path fill="#2b2b2b" d="M 359.771 53.711 C 373.262 61.647 386.066 71.995 406.128 90.617 C 425.893 108.966 438.52 127.153 445.385 138.599 C 425.004 156.603 383.112 197.156 350.345 252.179 C 310.482 319.102 291.621 356.382 283.431 373.924 C 282.605 373.915 281.787 373.915 280.964 373.915 C 221.593 373.915 162.135 392.643 116.101 412.293 L 243.815 285.627 C 247.948 286.783 252.233 287.394 256.534 287.394 C 268.933 287.394 280.597 282.606 289.382 273.91 C 298.193 265.17 303.061 253.533 303.061 241.167 C 303.061 228.796 298.198 217.165 289.393 208.434 C 280.582 199.69 268.858 194.872 256.391 194.872 C 243.924 194.872 232.207 199.685 223.405 208.41 C 211.23 220.451 207.132 237.93 211.583 253.641 L 83.838 380.333 C 103.937 334.038 123.077 274.047 122.516 214.325 C 140.197 206.205 177.781 187.502 245.239 147.977 C 300.729 115.484 341.603 73.944 359.771 53.711 M 355.202 29.948 C 355.202 29.948 308.043 89.311 235.585 131.749 C 136.233 189.951 103.092 202.171 103.092 202.171 C 110.375 323.517 23.214 454.346 23.214 454.346 C 23.214 454.346 20.288 453.514 16.55 453.514 C 11.451 453.514 4.852 455.053 2.109 462.353 C -0.56 469.437 4.467 477.297 8.27 481.932 L 234.435 257.626 C 226.197 246.871 226.918 231.548 236.814 221.755 C 242.217 216.402 249.296 213.72 256.387 213.72 C 263.466 213.72 270.549 216.396 275.943 221.755 C 286.753 232.468 286.753 249.861 275.943 260.575 C 270.56 265.894 263.556 268.547 256.531 268.547 C 250.641 268.547 244.733 266.677 239.787 262.967 L 13.629 487.271 C 17.394 490.307 23.268 494.101 29.133 494.101 C 30.561 494.101 31.985 493.878 33.38 493.366 C 46.164 488.638 41.465 472.42 41.465 472.42 C 41.465 472.42 163.009 392.762 280.958 392.762 C 285.875 392.762 290.782 392.899 295.683 393.185 C 295.683 393.185 307.997 360.309 366.692 261.771 C 409.476 189.932 469.322 143.139 469.322 143.139 C 469.322 143.139 455.188 110.364 419.11 76.858 C 392.188 51.86 376.877 40.315 355.202 29.948 Z" style=""/>
  <path fill="#2b2b2b" d="M 487.977 134.066 C 484.294 134.066 480.787 131.929 479.235 128.368 C 479.106 128.059 465.275 96.832 431.271 65.249 C 404.228 40.149 389.841 29.569 369.718 19.958 C 364.986 17.705 363.001 12.07 365.273 7.381 C 367.57 2.686 373.245 0.724 377.964 2.977 C 400.09 13.536 415.589 24.869 444.268 51.481 C 481.357 85.937 496.097 119.515 496.697 120.927 C 498.771 125.711 496.535 131.237 491.718 133.288 C 490.49 133.82 489.222 134.066 487.977 134.066 Z" style=""/>
</svg>